<svg xmlns="http://www.w3.org/2000/svg" version="1.1" xmlns:xlink="http://www.w3.org/1999/xlink" width="1000" height="1000"><style>
    #light-icon {
      display: inline;
    }
    #dark-icon {
      display: none;
    }

    @media (prefers-color-scheme: dark) {
      #light-icon {
        display: none;
      }
      #dark-icon {
        display: inline;
      }
    }
  </style><g id="light-icon"><svg xmlns="http://www.w3.org/2000/svg" version="1.1" xmlns:xlink="http://www.w3.org/1999/xlink" width="1000" height="1000"><g clip-path="url(#SvgjsClipPath1039)"><rect width="1000" height="1000" fill="#ffffff"></rect><g transform="matrix(37.5,0,0,37.5,50,50)"><svg xmlns="http://www.w3.org/2000/svg" version="1.1" xmlns:xlink="http://www.w3.org/1999/xlink" width="24" height="24"><svg xmlns="http://www.w3.org/2000/svg" width="24" height="24" viewBox="0 0 24 24" fill="none" stroke="currentColor" stroke-width="2" stroke-linecap="round" stroke-linejoin="round" class="lucide lucide-banknote-arrow-up-icon lucide-banknote-arrow-up"><path d="M12 18H4a2 2 0 0 1-2-2V8a2 2 0 0 1 2-2h16a2 2 0 0 1 2 2v5"></path><path d="M18 12h.01"></path><path d="M19 22v-6"></path><path d="m22 19-3-3-3 3"></path><path d="M6 12h.01"></path><circle cx="12" cy="12" r="2"></circle></svg></svg></g></g><defs><clipPath id="SvgjsClipPath1039"><rect width="1000" height="1000" x="0" y="0" rx="500" ry="500"></rect></clipPath></defs></svg></g><g id="dark-icon"><svg xmlns="http://www.w3.org/2000/svg" version="1.1" xmlns:xlink="http://www.w3.org/1999/xlink" width="1000" height="1000"><g clip-path="url(#SvgjsClipPath1040)"><rect width="1000" height="1000" fill="#ffffff"></rect><g transform="matrix(33.333333333333336,0,0,33.333333333333336,100,100)"><svg xmlns="http://www.w3.org/2000/svg" version="1.1" xmlns:xlink="http://www.w3.org/1999/xlink" width="24" height="24"><svg xmlns="http://www.w3.org/2000/svg" width="24" height="24" viewBox="0 0 24 24" fill="none" stroke="currentColor" stroke-width="2" stroke-linecap="round" stroke-linejoin="round" class="lucide lucide-banknote-arrow-up-icon lucide-banknote-arrow-up"><path d="M12 18H4a2 2 0 0 1-2-2V8a2 2 0 0 1 2-2h16a2 2 0 0 1 2 2v5"></path><path d="M18 12h.01"></path><path d="M19 22v-6"></path><path d="m22 19-3-3-3 3"></path><path d="M6 12h.01"></path><circle cx="12" cy="12" r="2"></circle></svg></svg></g></g><defs><clipPath id="SvgjsClipPath1040"><rect width="1000" height="1000" x="0" y="0" rx="500" ry="500"></rect></clipPath></defs></svg></g></svg>